<mxfile host="app.diagrams.net" modified="2020-07-23T16:12:57.380Z" agent="5.0 (Windows NT 10.0; Win64; x64) AppleWebKit/537.36 (KHTML, like Gecko) Chrome/84.0.4147.89 Safari/537.36" etag="ejFji9KzgAMBFz4l6hsF" version="13.4.9" type="github">
  <diagram id="C5RBs43oDa-KdzZeNtuy" name="Page-1">
    <mxGraphModel dx="4024" dy="1277" grid="1" gridSize="10" guides="1" tooltips="1" connect="1" arrows="1" fold="1" page="1" pageScale="1" pageWidth="827" pageHeight="1169" math="0" shadow="0">
      <root>
        <mxCell id="WIyWlLk6GJQsqaUBKTNV-0" />
        <mxCell id="WIyWlLk6GJQsqaUBKTNV-1" parent="WIyWlLk6GJQsqaUBKTNV-0" />
        <mxCell id="l96hs2-_nlqCzScLkACY-33" value="" style="edgeStyle=orthogonalEdgeStyle;rounded=0;orthogonalLoop=1;jettySize=auto;html=1;startArrow=classic;startFill=1;endArrow=none;endFill=0;" parent="WIyWlLk6GJQsqaUBKTNV-1" source="l96hs2-_nlqCzScLkACY-32" target="l96hs2-_nlqCzScLkACY-25" edge="1">
          <mxGeometry relative="1" as="geometry" />
        </mxCell>
        <mxCell id="5_xVZ5PCrMn_Ow3XCvqy-17" value="edit" style="edgeLabel;html=1;align=center;verticalAlign=middle;resizable=0;points=[];" vertex="1" connectable="0" parent="l96hs2-_nlqCzScLkACY-33">
          <mxGeometry x="0.2625" y="-2" relative="1" as="geometry">
            <mxPoint as="offset" />
          </mxGeometry>
        </mxCell>
        <mxCell id="5_xVZ5PCrMn_Ow3XCvqy-6" style="edgeStyle=orthogonalEdgeStyle;rounded=0;orthogonalLoop=1;jettySize=auto;html=1;endArrow=classic;endFill=1;entryX=0.5;entryY=0;entryDx=0;entryDy=0;" edge="1" parent="WIyWlLk6GJQsqaUBKTNV-1" source="WIyWlLk6GJQsqaUBKTNV-3" target="WIyWlLk6GJQsqaUBKTNV-10">
          <mxGeometry relative="1" as="geometry">
            <mxPoint x="330" y="40" as="targetPoint" />
          </mxGeometry>
        </mxCell>
        <mxCell id="5_xVZ5PCrMn_Ow3XCvqy-13" value="logged in" style="edgeLabel;html=1;align=center;verticalAlign=middle;resizable=0;points=[];" vertex="1" connectable="0" parent="5_xVZ5PCrMn_Ow3XCvqy-6">
          <mxGeometry x="-0.137" y="1" relative="1" as="geometry">
            <mxPoint y="1" as="offset" />
          </mxGeometry>
        </mxCell>
        <mxCell id="WIyWlLk6GJQsqaUBKTNV-3" value="OPEN APP&lt;br&gt;SPLASH SCREEN" style="rounded=1;whiteSpace=wrap;html=1;fontSize=12;glass=0;strokeWidth=1;shadow=0;" parent="WIyWlLk6GJQsqaUBKTNV-1" vertex="1">
          <mxGeometry x="60" y="20" width="120" height="40" as="geometry" />
        </mxCell>
        <mxCell id="5_xVZ5PCrMn_Ow3XCvqy-205" style="edgeStyle=orthogonalEdgeStyle;rounded=0;orthogonalLoop=1;jettySize=auto;html=1;exitX=0;exitY=1;exitDx=0;exitDy=0;entryX=0.5;entryY=0;entryDx=0;entryDy=0;endArrow=classic;endFill=1;" edge="1" parent="WIyWlLk6GJQsqaUBKTNV-1" source="WIyWlLk6GJQsqaUBKTNV-10" target="5_xVZ5PCrMn_Ow3XCvqy-201">
          <mxGeometry relative="1" as="geometry" />
        </mxCell>
        <mxCell id="5_xVZ5PCrMn_Ow3XCvqy-206" style="edgeStyle=orthogonalEdgeStyle;rounded=0;orthogonalLoop=1;jettySize=auto;html=1;exitX=0;exitY=1;exitDx=0;exitDy=0;endArrow=classic;endFill=1;" edge="1" parent="WIyWlLk6GJQsqaUBKTNV-1" source="WIyWlLk6GJQsqaUBKTNV-10" target="5_xVZ5PCrMn_Ow3XCvqy-189">
          <mxGeometry relative="1" as="geometry" />
        </mxCell>
        <mxCell id="WIyWlLk6GJQsqaUBKTNV-10" value="HOME&lt;br&gt;SCREEN" style="rhombus;whiteSpace=wrap;html=1;shadow=0;fontFamily=Helvetica;fontSize=12;align=center;strokeWidth=1;spacing=6;spacingTop=-4;" parent="WIyWlLk6GJQsqaUBKTNV-1" vertex="1">
          <mxGeometry x="240" y="100" width="100" height="80" as="geometry" />
        </mxCell>
        <mxCell id="l96hs2-_nlqCzScLkACY-35" value="" style="edgeStyle=orthogonalEdgeStyle;rounded=0;orthogonalLoop=1;jettySize=auto;html=1;startArrow=classic;startFill=1;endArrow=none;endFill=0;entryX=0.5;entryY=1;entryDx=0;entryDy=0;" parent="WIyWlLk6GJQsqaUBKTNV-1" source="l96hs2-_nlqCzScLkACY-25" target="l96hs2-_nlqCzScLkACY-23" edge="1">
          <mxGeometry relative="1" as="geometry">
            <mxPoint x="-30" y="491" as="targetPoint" />
          </mxGeometry>
        </mxCell>
        <mxCell id="l96hs2-_nlqCzScLkACY-1" value="&lt;h1 style=&quot;font-size: 16px&quot;&gt;&lt;font style=&quot;font-size: 16px&quot;&gt;TASK ANALYSIS /&amp;nbsp;&lt;/font&gt;USER GOAL: &lt;span style=&quot;font-weight: normal&quot;&gt;TO CREATE A NEW FLASHCARD&lt;/span&gt;&lt;/h1&gt;&lt;div&gt;&lt;span style=&quot;font-size: 16px&quot;&gt;&lt;b&gt;ENTRY POINT:&lt;/b&gt;&amp;nbsp;FLASHCARD APP&lt;/span&gt;&lt;/div&gt;&lt;div&gt;&lt;span style=&quot;font-size: 16px&quot;&gt;&lt;br&gt;&lt;/span&gt;&lt;/div&gt;&lt;div&gt;&lt;b style=&quot;font-size: 16px&quot;&gt;SUCCESS CRITERIA:&lt;/b&gt;&lt;span style=&quot;font-size: 16px&quot;&gt; CREATE FLASHCARD&lt;/span&gt;&lt;/div&gt;&lt;div&gt;&lt;span style=&quot;font-size: 16px&quot;&gt;&lt;br&gt;&lt;/span&gt;&lt;/div&gt;&lt;div&gt;&lt;span style=&quot;font-size: 16px&quot;&gt;&lt;br&gt;&lt;/span&gt;&lt;/div&gt;&lt;div style=&quot;font-size: 16px&quot;&gt;&lt;br&gt;&lt;/div&gt;" style="text;html=1;align=left;verticalAlign=middle;resizable=0;points=[];autosize=1;" parent="WIyWlLk6GJQsqaUBKTNV-1" vertex="1">
          <mxGeometry x="-800" y="42" width="510" height="130" as="geometry" />
        </mxCell>
        <mxCell id="l96hs2-_nlqCzScLkACY-2" value="&lt;font style=&quot;font-size: 16px&quot;&gt;&lt;b&gt;USER FLOW&lt;/b&gt;&lt;/font&gt;" style="text;html=1;strokeColor=none;fillColor=none;align=center;verticalAlign=middle;whiteSpace=wrap;rounded=0;" parent="WIyWlLk6GJQsqaUBKTNV-1" vertex="1">
          <mxGeometry x="-250" y="11" width="110" height="20" as="geometry" />
        </mxCell>
        <mxCell id="l96hs2-_nlqCzScLkACY-24" value="" style="edgeStyle=orthogonalEdgeStyle;rounded=0;orthogonalLoop=1;jettySize=auto;html=1;startArrow=classic;startFill=1;endArrow=none;endFill=0;" parent="WIyWlLk6GJQsqaUBKTNV-1" source="l96hs2-_nlqCzScLkACY-23" target="WIyWlLk6GJQsqaUBKTNV-10" edge="1">
          <mxGeometry relative="1" as="geometry" />
        </mxCell>
        <mxCell id="l96hs2-_nlqCzScLkACY-25" value="REVIEW or EDIT SET" style="rounded=1;whiteSpace=wrap;html=1;fontSize=12;glass=0;strokeWidth=1;shadow=0;" parent="WIyWlLk6GJQsqaUBKTNV-1" vertex="1">
          <mxGeometry x="230" y="330" width="120" height="40" as="geometry" />
        </mxCell>
        <mxCell id="5_xVZ5PCrMn_Ow3XCvqy-197" value="" style="edgeStyle=orthogonalEdgeStyle;rounded=0;orthogonalLoop=1;jettySize=auto;html=1;endArrow=classic;endFill=1;" edge="1" parent="WIyWlLk6GJQsqaUBKTNV-1" source="l96hs2-_nlqCzScLkACY-32" target="5_xVZ5PCrMn_Ow3XCvqy-196">
          <mxGeometry relative="1" as="geometry">
            <Array as="points">
              <mxPoint x="290" y="590" />
            </Array>
          </mxGeometry>
        </mxCell>
        <mxCell id="5_xVZ5PCrMn_Ow3XCvqy-208" value="remove" style="edgeLabel;html=1;align=center;verticalAlign=middle;resizable=0;points=[];" vertex="1" connectable="0" parent="5_xVZ5PCrMn_Ow3XCvqy-197">
          <mxGeometry x="-0.184" y="2" relative="1" as="geometry">
            <mxPoint x="-1" as="offset" />
          </mxGeometry>
        </mxCell>
        <mxCell id="l96hs2-_nlqCzScLkACY-32" value="ADD / CREATE / REMOVE" style="rounded=1;whiteSpace=wrap;html=1;fontSize=12;glass=0;strokeWidth=1;shadow=0;" parent="WIyWlLk6GJQsqaUBKTNV-1" vertex="1">
          <mxGeometry x="230" y="450" width="120" height="40" as="geometry" />
        </mxCell>
        <mxCell id="5_xVZ5PCrMn_Ow3XCvqy-207" style="edgeStyle=orthogonalEdgeStyle;rounded=0;orthogonalLoop=1;jettySize=auto;html=1;entryX=1;entryY=0.5;entryDx=0;entryDy=0;endArrow=classic;endFill=1;startArrow=classic;startFill=1;" edge="1" parent="WIyWlLk6GJQsqaUBKTNV-1" source="l96hs2-_nlqCzScLkACY-23" target="5_xVZ5PCrMn_Ow3XCvqy-201">
          <mxGeometry relative="1" as="geometry" />
        </mxCell>
        <mxCell id="l96hs2-_nlqCzScLkACY-23" value="SELECT FLASHCARD SET" style="rounded=1;whiteSpace=wrap;html=1;fontSize=12;glass=0;strokeWidth=1;shadow=0;" parent="WIyWlLk6GJQsqaUBKTNV-1" vertex="1">
          <mxGeometry x="230" y="230" width="120" height="40" as="geometry" />
        </mxCell>
        <mxCell id="l96hs2-_nlqCzScLkACY-53" value="" style="whiteSpace=wrap;html=1;aspect=fixed;" parent="WIyWlLk6GJQsqaUBKTNV-1" vertex="1">
          <mxGeometry x="-800" y="161" width="359" height="359" as="geometry" />
        </mxCell>
        <mxCell id="l96hs2-_nlqCzScLkACY-58" value="&lt;ul&gt;&lt;li&gt;Open flashcard app&lt;/li&gt;&lt;/ul&gt;" style="text;html=1;resizable=0;autosize=1;align=center;verticalAlign=middle;points=[];fillColor=none;strokeColor=none;rounded=0;" parent="WIyWlLk6GJQsqaUBKTNV-1" vertex="1">
          <mxGeometry x="-800" y="161" width="160" height="40" as="geometry" />
        </mxCell>
        <mxCell id="l96hs2-_nlqCzScLkACY-60" value="&lt;ul&gt;&lt;li&gt;&lt;span&gt;ONBOARDING&lt;/span&gt;&lt;br&gt;&lt;/li&gt;&lt;/ul&gt;" style="text;html=1;resizable=0;autosize=1;align=center;verticalAlign=middle;points=[];fillColor=none;strokeColor=none;rounded=0;" parent="WIyWlLk6GJQsqaUBKTNV-1" vertex="1">
          <mxGeometry x="-802" y="180" width="140" height="40" as="geometry" />
        </mxCell>
        <mxCell id="l96hs2-_nlqCzScLkACY-61" value="&lt;ul&gt;&lt;ul&gt;&lt;li&gt;sign in / sign up&lt;/li&gt;&lt;/ul&gt;&lt;/ul&gt;" style="text;html=1;resizable=0;autosize=1;align=left;verticalAlign=middle;points=[];fillColor=none;strokeColor=none;rounded=0;" parent="WIyWlLk6GJQsqaUBKTNV-1" vertex="1">
          <mxGeometry x="-809" y="201" width="180" height="40" as="geometry" />
        </mxCell>
        <mxCell id="l96hs2-_nlqCzScLkACY-62" value="&lt;ul&gt;&lt;li&gt;HOME SCREEN MENU&lt;/li&gt;&lt;/ul&gt;" style="text;html=1;resizable=0;autosize=1;align=center;verticalAlign=middle;points=[];fillColor=none;strokeColor=none;rounded=0;" parent="WIyWlLk6GJQsqaUBKTNV-1" vertex="1">
          <mxGeometry x="-799" y="224" width="180" height="40" as="geometry" />
        </mxCell>
        <mxCell id="l96hs2-_nlqCzScLkACY-63" value="&lt;ul&gt;&lt;ul&gt;&lt;ul&gt;&lt;li&gt;select create flashcard&lt;/li&gt;&lt;/ul&gt;&lt;/ul&gt;&lt;/ul&gt;" style="text;html=1;resizable=0;autosize=1;align=center;verticalAlign=middle;points=[];fillColor=none;strokeColor=none;rounded=0;" parent="WIyWlLk6GJQsqaUBKTNV-1" vertex="1">
          <mxGeometry x="-860" y="243" width="260" height="40" as="geometry" />
        </mxCell>
        <mxCell id="l96hs2-_nlqCzScLkACY-64" value="&lt;ul&gt;&lt;li&gt;input front and back info&lt;/li&gt;&lt;/ul&gt;" style="text;html=1;resizable=0;autosize=1;align=center;verticalAlign=middle;points=[];fillColor=none;strokeColor=none;rounded=0;" parent="WIyWlLk6GJQsqaUBKTNV-1" vertex="1">
          <mxGeometry x="-798" y="264" width="180" height="40" as="geometry" />
        </mxCell>
        <mxCell id="5_xVZ5PCrMn_Ow3XCvqy-187" style="edgeStyle=orthogonalEdgeStyle;rounded=0;orthogonalLoop=1;jettySize=auto;html=1;exitX=1;exitY=0.5;exitDx=0;exitDy=0;endArrow=classic;endFill=1;" edge="1" parent="WIyWlLk6GJQsqaUBKTNV-1" source="l96hs2-_nlqCzScLkACY-65">
          <mxGeometry relative="1" as="geometry">
            <mxPoint x="650" y="350" as="targetPoint" />
          </mxGeometry>
        </mxCell>
        <mxCell id="l96hs2-_nlqCzScLkACY-65" value="&lt;font style=&quot;font-size: 12px&quot;&gt;START REVIEWING&lt;/font&gt;" style="rounded=1;whiteSpace=wrap;html=1;fontSize=12;glass=0;strokeWidth=1;shadow=0;arcSize=50;" parent="WIyWlLk6GJQsqaUBKTNV-1" vertex="1">
          <mxGeometry x="450" y="330" width="130" height="40" as="geometry" />
        </mxCell>
        <mxCell id="l96hs2-_nlqCzScLkACY-94" value="&lt;ul&gt;&lt;li&gt;review card&lt;/li&gt;&lt;/ul&gt;" style="text;html=1;resizable=0;autosize=1;align=center;verticalAlign=middle;points=[];fillColor=none;strokeColor=none;rounded=0;" parent="WIyWlLk6GJQsqaUBKTNV-1" vertex="1">
          <mxGeometry x="-802" y="283" width="120" height="40" as="geometry" />
        </mxCell>
        <mxCell id="l96hs2-_nlqCzScLkACY-95" value="&lt;ul&gt;&lt;ul&gt;&lt;li&gt;save or edit&lt;/li&gt;&lt;/ul&gt;&lt;/ul&gt;" style="text;html=1;resizable=0;autosize=1;align=center;verticalAlign=middle;points=[];fillColor=none;strokeColor=none;rounded=0;" parent="WIyWlLk6GJQsqaUBKTNV-1" vertex="1">
          <mxGeometry x="-822" y="304" width="160" height="40" as="geometry" />
        </mxCell>
        <mxCell id="l96hs2-_nlqCzScLkACY-97" value="&lt;blockquote style=&quot;margin: 0 0 0 40px ; border: none ; padding: 0px&quot;&gt;&lt;ul&gt;&lt;li&gt;&lt;span&gt;flashcard created&lt;/span&gt;&lt;/li&gt;&lt;/ul&gt;&lt;/blockquote&gt;" style="text;html=1;resizable=0;autosize=1;align=center;verticalAlign=middle;points=[];fillColor=none;strokeColor=none;rounded=0;" parent="WIyWlLk6GJQsqaUBKTNV-1" vertex="1">
          <mxGeometry x="-840" y="323" width="190" height="40" as="geometry" />
        </mxCell>
        <mxCell id="l96hs2-_nlqCzScLkACY-98" value="&lt;ul&gt;&lt;ul&gt;&lt;li&gt;return to home screen menu or create a new card&lt;/li&gt;&lt;/ul&gt;&lt;/ul&gt;" style="text;html=1;resizable=0;autosize=1;align=center;verticalAlign=middle;points=[];fillColor=none;strokeColor=none;rounded=0;" parent="WIyWlLk6GJQsqaUBKTNV-1" vertex="1">
          <mxGeometry x="-820" y="344" width="360" height="40" as="geometry" />
        </mxCell>
        <mxCell id="5_xVZ5PCrMn_Ow3XCvqy-2" value="" style="edgeStyle=orthogonalEdgeStyle;rounded=0;orthogonalLoop=1;jettySize=auto;html=1;entryX=0;entryY=0;entryDx=0;entryDy=0;" edge="1" parent="WIyWlLk6GJQsqaUBKTNV-1" source="l96hs2-_nlqCzScLkACY-17" target="WIyWlLk6GJQsqaUBKTNV-10">
          <mxGeometry relative="1" as="geometry" />
        </mxCell>
        <mxCell id="5_xVZ5PCrMn_Ow3XCvqy-10" style="edgeStyle=orthogonalEdgeStyle;rounded=0;orthogonalLoop=1;jettySize=auto;html=1;endArrow=classic;endFill=1;" edge="1" parent="WIyWlLk6GJQsqaUBKTNV-1" target="l96hs2-_nlqCzScLkACY-17">
          <mxGeometry relative="1" as="geometry">
            <mxPoint x="-40" y="40" as="sourcePoint" />
            <Array as="points">
              <mxPoint x="-100" y="40" />
            </Array>
          </mxGeometry>
        </mxCell>
        <mxCell id="l96hs2-_nlqCzScLkACY-17" value="LOG IN" style="rounded=1;whiteSpace=wrap;html=1;fontSize=12;glass=0;strokeWidth=1;shadow=0;" parent="WIyWlLk6GJQsqaUBKTNV-1" vertex="1">
          <mxGeometry x="-130" y="100" width="80" height="40" as="geometry" />
        </mxCell>
        <mxCell id="5_xVZ5PCrMn_Ow3XCvqy-8" value="" style="endArrow=none;html=1;endFill=0;entryX=0;entryY=0.5;entryDx=0;entryDy=0;" edge="1" parent="WIyWlLk6GJQsqaUBKTNV-1" target="WIyWlLk6GJQsqaUBKTNV-3">
          <mxGeometry relative="1" as="geometry">
            <mxPoint x="-40" y="40" as="sourcePoint" />
            <mxPoint x="90" y="39.58" as="targetPoint" />
          </mxGeometry>
        </mxCell>
        <mxCell id="5_xVZ5PCrMn_Ow3XCvqy-9" value="not logged in" style="edgeLabel;resizable=0;html=1;align=center;verticalAlign=middle;" connectable="0" vertex="1" parent="5_xVZ5PCrMn_Ow3XCvqy-8">
          <mxGeometry relative="1" as="geometry" />
        </mxCell>
        <mxCell id="5_xVZ5PCrMn_Ow3XCvqy-14" value="" style="endArrow=classic;html=1;exitX=1;exitY=0.5;exitDx=0;exitDy=0;entryX=0;entryY=0.5;entryDx=0;entryDy=0;startArrow=classic;startFill=1;" edge="1" parent="WIyWlLk6GJQsqaUBKTNV-1" source="l96hs2-_nlqCzScLkACY-25" target="l96hs2-_nlqCzScLkACY-65">
          <mxGeometry width="50" height="50" relative="1" as="geometry">
            <mxPoint x="400" y="350" as="sourcePoint" />
            <mxPoint x="490" y="350" as="targetPoint" />
          </mxGeometry>
        </mxCell>
        <mxCell id="5_xVZ5PCrMn_Ow3XCvqy-15" value="review" style="edgeLabel;html=1;align=center;verticalAlign=middle;resizable=0;points=[];" vertex="1" connectable="0" parent="5_xVZ5PCrMn_Ow3XCvqy-14">
          <mxGeometry x="-0.1848" y="1" relative="1" as="geometry">
            <mxPoint as="offset" />
          </mxGeometry>
        </mxCell>
        <mxCell id="5_xVZ5PCrMn_Ow3XCvqy-27" value="" style="endArrow=classic;html=1;exitX=0;exitY=0.5;exitDx=0;exitDy=0;entryX=1;entryY=0.5;entryDx=0;entryDy=0;" edge="1" parent="WIyWlLk6GJQsqaUBKTNV-1" source="l96hs2-_nlqCzScLkACY-32" target="5_xVZ5PCrMn_Ow3XCvqy-155">
          <mxGeometry relative="1" as="geometry">
            <mxPoint x="200" y="469.40999999999997" as="sourcePoint" />
            <mxPoint x="-20" y="469" as="targetPoint" />
          </mxGeometry>
        </mxCell>
        <mxCell id="5_xVZ5PCrMn_Ow3XCvqy-191" value="CREATE" style="edgeLabel;html=1;align=center;verticalAlign=middle;resizable=0;points=[];" vertex="1" connectable="0" parent="5_xVZ5PCrMn_Ow3XCvqy-27">
          <mxGeometry x="-0.2498" relative="1" as="geometry">
            <mxPoint x="-1" as="offset" />
          </mxGeometry>
        </mxCell>
        <mxCell id="5_xVZ5PCrMn_Ow3XCvqy-145" value="" style="edgeStyle=orthogonalEdgeStyle;rounded=0;orthogonalLoop=1;jettySize=auto;html=1;startArrow=classic;startFill=1;endArrow=none;endFill=0;" edge="1" parent="WIyWlLk6GJQsqaUBKTNV-1" source="5_xVZ5PCrMn_Ow3XCvqy-154" target="5_xVZ5PCrMn_Ow3XCvqy-151">
          <mxGeometry relative="1" as="geometry" />
        </mxCell>
        <mxCell id="5_xVZ5PCrMn_Ow3XCvqy-147" value="" style="edgeStyle=orthogonalEdgeStyle;rounded=0;orthogonalLoop=1;jettySize=auto;html=1;startArrow=classic;startFill=1;endArrow=none;endFill=0;entryX=0.5;entryY=1;entryDx=0;entryDy=0;" edge="1" parent="WIyWlLk6GJQsqaUBKTNV-1" source="5_xVZ5PCrMn_Ow3XCvqy-151" target="5_xVZ5PCrMn_Ow3XCvqy-155">
          <mxGeometry relative="1" as="geometry">
            <mxPoint x="-90" y="560" as="targetPoint" />
          </mxGeometry>
        </mxCell>
        <mxCell id="5_xVZ5PCrMn_Ow3XCvqy-149" value="" style="edgeStyle=orthogonalEdgeStyle;rounded=0;orthogonalLoop=1;jettySize=auto;html=1;startArrow=classic;startFill=1;endArrow=none;endFill=0;" edge="1" parent="WIyWlLk6GJQsqaUBKTNV-1" target="5_xVZ5PCrMn_Ow3XCvqy-151">
          <mxGeometry relative="1" as="geometry">
            <mxPoint x="-360" y="650" as="sourcePoint" />
          </mxGeometry>
        </mxCell>
        <mxCell id="5_xVZ5PCrMn_Ow3XCvqy-150" style="edgeStyle=orthogonalEdgeStyle;rounded=0;orthogonalLoop=1;jettySize=auto;html=1;startArrow=classic;startFill=1;endArrow=none;endFill=0;" edge="1" parent="WIyWlLk6GJQsqaUBKTNV-1" source="5_xVZ5PCrMn_Ow3XCvqy-151">
          <mxGeometry relative="1" as="geometry">
            <mxPoint x="20" y="570" as="targetPoint" />
          </mxGeometry>
        </mxCell>
        <mxCell id="5_xVZ5PCrMn_Ow3XCvqy-151" value="INPUT CARD INFO" style="rounded=1;whiteSpace=wrap;html=1;fontSize=12;glass=0;strokeWidth=1;shadow=0;" vertex="1" parent="WIyWlLk6GJQsqaUBKTNV-1">
          <mxGeometry x="-310" y="550" width="120" height="40" as="geometry" />
        </mxCell>
        <mxCell id="5_xVZ5PCrMn_Ow3XCvqy-152" style="edgeStyle=orthogonalEdgeStyle;rounded=0;orthogonalLoop=1;jettySize=auto;html=1;startArrow=classicThin;startFill=1;endArrow=none;endFill=0;" edge="1" parent="WIyWlLk6GJQsqaUBKTNV-1" source="5_xVZ5PCrMn_Ow3XCvqy-153">
          <mxGeometry relative="1" as="geometry">
            <mxPoint x="-420" y="709" as="targetPoint" />
          </mxGeometry>
        </mxCell>
        <mxCell id="5_xVZ5PCrMn_Ow3XCvqy-153" value="FRONT" style="rounded=1;whiteSpace=wrap;html=1;fontSize=12;glass=0;strokeWidth=1;shadow=0;direction=west;align=center;" vertex="1" parent="WIyWlLk6GJQsqaUBKTNV-1">
          <mxGeometry x="-480" y="629" width="120" height="40" as="geometry" />
        </mxCell>
        <mxCell id="5_xVZ5PCrMn_Ow3XCvqy-154" value="BACK" style="rounded=1;whiteSpace=wrap;html=1;fontSize=12;glass=0;strokeWidth=1;shadow=0;" vertex="1" parent="WIyWlLk6GJQsqaUBKTNV-1">
          <mxGeometry x="-150" y="630" width="120" height="40" as="geometry" />
        </mxCell>
        <mxCell id="5_xVZ5PCrMn_Ow3XCvqy-155" value="CREATE NEW FLASHCARD" style="rounded=1;whiteSpace=wrap;html=1;fontSize=12;glass=0;strokeWidth=1;shadow=0;" vertex="1" parent="WIyWlLk6GJQsqaUBKTNV-1">
          <mxGeometry x="-310" y="450" width="120" height="40" as="geometry" />
        </mxCell>
        <mxCell id="5_xVZ5PCrMn_Ow3XCvqy-156" value="" style="edgeStyle=orthogonalEdgeStyle;rounded=0;orthogonalLoop=1;jettySize=auto;html=1;startArrow=classic;startFill=1;endArrow=classic;endFill=1;" edge="1" parent="WIyWlLk6GJQsqaUBKTNV-1">
          <mxGeometry relative="1" as="geometry">
            <mxPoint x="-190" y="711" as="sourcePoint" />
            <mxPoint x="-90" y="671.9999999999998" as="targetPoint" />
          </mxGeometry>
        </mxCell>
        <mxCell id="5_xVZ5PCrMn_Ow3XCvqy-157" value="edit" style="edgeLabel;html=1;align=center;verticalAlign=middle;resizable=0;points=[];" vertex="1" connectable="0" parent="5_xVZ5PCrMn_Ow3XCvqy-156">
          <mxGeometry x="-0.075" relative="1" as="geometry">
            <mxPoint as="offset" />
          </mxGeometry>
        </mxCell>
        <mxCell id="5_xVZ5PCrMn_Ow3XCvqy-158" style="edgeStyle=orthogonalEdgeStyle;rounded=0;orthogonalLoop=1;jettySize=auto;html=1;startArrow=none;startFill=0;endArrow=none;endFill=0;" edge="1" parent="WIyWlLk6GJQsqaUBKTNV-1" target="5_xVZ5PCrMn_Ow3XCvqy-159">
          <mxGeometry relative="1" as="geometry">
            <mxPoint x="-250" y="749" as="sourcePoint" />
          </mxGeometry>
        </mxCell>
        <mxCell id="5_xVZ5PCrMn_Ow3XCvqy-159" value="&lt;font style=&quot;font-size: 8px&quot;&gt;&lt;span&gt;REVIEW CARD CREATED&lt;/span&gt;&lt;font style=&quot;font-size: 8px&quot;&gt;&lt;br&gt;&lt;/font&gt;&lt;/font&gt;&lt;font size=&quot;1&quot;&gt;SAVE or EDIT?&lt;/font&gt;" style="rounded=1;whiteSpace=wrap;html=1;fontSize=12;glass=0;strokeWidth=1;shadow=0;arcSize=50;" vertex="1" parent="WIyWlLk6GJQsqaUBKTNV-1">
          <mxGeometry x="-310" y="689" width="120" height="40" as="geometry" />
        </mxCell>
        <mxCell id="5_xVZ5PCrMn_Ow3XCvqy-160" value="" style="edgeStyle=orthogonalEdgeStyle;rounded=0;orthogonalLoop=1;jettySize=auto;html=1;startArrow=classic;startFill=1;endArrow=none;endFill=0;" edge="1" parent="WIyWlLk6GJQsqaUBKTNV-1" source="5_xVZ5PCrMn_Ow3XCvqy-164" target="5_xVZ5PCrMn_Ow3XCvqy-162">
          <mxGeometry relative="1" as="geometry" />
        </mxCell>
        <mxCell id="5_xVZ5PCrMn_Ow3XCvqy-161" style="edgeStyle=orthogonalEdgeStyle;rounded=0;orthogonalLoop=1;jettySize=auto;html=1;startArrow=classicThin;startFill=1;endArrow=none;endFill=0;" edge="1" parent="WIyWlLk6GJQsqaUBKTNV-1" source="5_xVZ5PCrMn_Ow3XCvqy-162">
          <mxGeometry relative="1" as="geometry">
            <mxPoint x="-140" y="749" as="targetPoint" />
          </mxGeometry>
        </mxCell>
        <mxCell id="5_xVZ5PCrMn_Ow3XCvqy-162" value="&lt;font style=&quot;font-size: 12px&quot;&gt;CARD CREATED&lt;/font&gt;" style="rounded=1;whiteSpace=wrap;html=1;fontSize=12;glass=0;strokeWidth=1;shadow=0;arcSize=50;" vertex="1" parent="WIyWlLk6GJQsqaUBKTNV-1">
          <mxGeometry x="-200" y="779" width="120" height="40" as="geometry" />
        </mxCell>
        <mxCell id="5_xVZ5PCrMn_Ow3XCvqy-164" value="&lt;font style=&quot;font-size: 12px&quot;&gt;CREATE NEW CARD?&lt;/font&gt;" style="rounded=1;whiteSpace=wrap;html=1;fontSize=12;glass=0;strokeWidth=1;shadow=0;arcSize=50;" vertex="1" parent="WIyWlLk6GJQsqaUBKTNV-1">
          <mxGeometry x="-200" y="869" width="120" height="40" as="geometry" />
        </mxCell>
        <mxCell id="5_xVZ5PCrMn_Ow3XCvqy-165" value="" style="endArrow=none;html=1;endFill=0;exitX=0.5;exitY=1;exitDx=0;exitDy=0;" edge="1" parent="WIyWlLk6GJQsqaUBKTNV-1" source="5_xVZ5PCrMn_Ow3XCvqy-164">
          <mxGeometry relative="1" as="geometry">
            <mxPoint x="-140" y="970" as="sourcePoint" />
            <mxPoint x="650" y="970" as="targetPoint" />
            <Array as="points">
              <mxPoint x="-140" y="970" />
            </Array>
          </mxGeometry>
        </mxCell>
        <mxCell id="5_xVZ5PCrMn_Ow3XCvqy-166" value="no" style="edgeLabel;resizable=0;html=1;align=center;verticalAlign=middle;" connectable="0" vertex="1" parent="5_xVZ5PCrMn_Ow3XCvqy-165">
          <mxGeometry relative="1" as="geometry">
            <mxPoint x="-19" as="offset" />
          </mxGeometry>
        </mxCell>
        <mxCell id="5_xVZ5PCrMn_Ow3XCvqy-167" value="" style="endArrow=none;html=1;endFill=0;" edge="1" parent="WIyWlLk6GJQsqaUBKTNV-1">
          <mxGeometry relative="1" as="geometry">
            <mxPoint x="-80" y="888.8299999999999" as="sourcePoint" />
            <mxPoint x="20" y="889" as="targetPoint" />
          </mxGeometry>
        </mxCell>
        <mxCell id="5_xVZ5PCrMn_Ow3XCvqy-168" value="yes" style="edgeLabel;resizable=0;html=1;align=center;verticalAlign=middle;" connectable="0" vertex="1" parent="5_xVZ5PCrMn_Ow3XCvqy-167">
          <mxGeometry relative="1" as="geometry" />
        </mxCell>
        <mxCell id="5_xVZ5PCrMn_Ow3XCvqy-169" value="" style="endArrow=none;html=1;" edge="1" parent="WIyWlLk6GJQsqaUBKTNV-1">
          <mxGeometry width="50" height="50" relative="1" as="geometry">
            <mxPoint x="20" y="889" as="sourcePoint" />
            <mxPoint x="20" y="570" as="targetPoint" />
          </mxGeometry>
        </mxCell>
        <mxCell id="5_xVZ5PCrMn_Ow3XCvqy-170" value="" style="endArrow=classic;html=1;" edge="1" parent="WIyWlLk6GJQsqaUBKTNV-1">
          <mxGeometry relative="1" as="geometry">
            <mxPoint x="-420" y="709" as="sourcePoint" />
            <mxPoint x="-310" y="709" as="targetPoint" />
          </mxGeometry>
        </mxCell>
        <mxCell id="5_xVZ5PCrMn_Ow3XCvqy-171" value="edit" style="edgeLabel;resizable=0;html=1;align=center;verticalAlign=middle;" connectable="0" vertex="1" parent="5_xVZ5PCrMn_Ow3XCvqy-170">
          <mxGeometry relative="1" as="geometry" />
        </mxCell>
        <mxCell id="5_xVZ5PCrMn_Ow3XCvqy-172" value="" style="endArrow=none;html=1;endFill=0;" edge="1" parent="WIyWlLk6GJQsqaUBKTNV-1">
          <mxGeometry relative="1" as="geometry">
            <mxPoint x="-250" y="749" as="sourcePoint" />
            <mxPoint x="-140" y="749" as="targetPoint" />
            <Array as="points">
              <mxPoint x="-200" y="749" />
            </Array>
          </mxGeometry>
        </mxCell>
        <mxCell id="5_xVZ5PCrMn_Ow3XCvqy-173" value="save" style="edgeLabel;resizable=0;html=1;align=center;verticalAlign=middle;" connectable="0" vertex="1" parent="5_xVZ5PCrMn_Ow3XCvqy-172">
          <mxGeometry relative="1" as="geometry" />
        </mxCell>
        <mxCell id="5_xVZ5PCrMn_Ow3XCvqy-179" value="" style="endArrow=classic;html=1;endFill=1;startArrow=none;startFill=0;" edge="1" parent="WIyWlLk6GJQsqaUBKTNV-1">
          <mxGeometry width="50" height="50" relative="1" as="geometry">
            <mxPoint x="650" y="970" as="sourcePoint" />
            <mxPoint x="650" y="290" as="targetPoint" />
            <Array as="points" />
          </mxGeometry>
        </mxCell>
        <mxCell id="5_xVZ5PCrMn_Ow3XCvqy-181" value="" style="endArrow=none;html=1;" edge="1" parent="WIyWlLk6GJQsqaUBKTNV-1">
          <mxGeometry width="50" height="50" relative="1" as="geometry">
            <mxPoint x="650" y="290" as="sourcePoint" />
            <mxPoint x="650" y="140" as="targetPoint" />
            <Array as="points" />
          </mxGeometry>
        </mxCell>
        <mxCell id="5_xVZ5PCrMn_Ow3XCvqy-182" value="" style="endArrow=classic;html=1;entryX=1;entryY=0.5;entryDx=0;entryDy=0;" edge="1" parent="WIyWlLk6GJQsqaUBKTNV-1" target="WIyWlLk6GJQsqaUBKTNV-10">
          <mxGeometry width="50" height="50" relative="1" as="geometry">
            <mxPoint x="650" y="140" as="sourcePoint" />
            <mxPoint x="610" y="90" as="targetPoint" />
          </mxGeometry>
        </mxCell>
        <mxCell id="5_xVZ5PCrMn_Ow3XCvqy-202" value="" style="edgeStyle=orthogonalEdgeStyle;rounded=0;orthogonalLoop=1;jettySize=auto;html=1;endArrow=classic;endFill=1;startArrow=classic;startFill=1;" edge="1" parent="WIyWlLk6GJQsqaUBKTNV-1" source="5_xVZ5PCrMn_Ow3XCvqy-189" target="5_xVZ5PCrMn_Ow3XCvqy-201">
          <mxGeometry relative="1" as="geometry" />
        </mxCell>
        <mxCell id="5_xVZ5PCrMn_Ow3XCvqy-189" value="CARD BANK" style="rounded=1;whiteSpace=wrap;html=1;fontSize=12;glass=0;strokeWidth=1;shadow=0;" vertex="1" parent="WIyWlLk6GJQsqaUBKTNV-1">
          <mxGeometry x="-170" y="230" width="120" height="40" as="geometry" />
        </mxCell>
        <mxCell id="5_xVZ5PCrMn_Ow3XCvqy-193" value="" style="endArrow=classic;html=1;exitX=0;exitY=0;exitDx=0;exitDy=0;" edge="1" parent="WIyWlLk6GJQsqaUBKTNV-1" source="l96hs2-_nlqCzScLkACY-32" target="5_xVZ5PCrMn_Ow3XCvqy-189">
          <mxGeometry relative="1" as="geometry">
            <mxPoint x="290" y="510" as="sourcePoint" />
            <mxPoint x="390" y="510" as="targetPoint" />
          </mxGeometry>
        </mxCell>
        <mxCell id="5_xVZ5PCrMn_Ow3XCvqy-194" value="ADD" style="edgeLabel;resizable=0;html=1;align=center;verticalAlign=middle;" connectable="0" vertex="1" parent="5_xVZ5PCrMn_Ow3XCvqy-193">
          <mxGeometry relative="1" as="geometry" />
        </mxCell>
        <mxCell id="5_xVZ5PCrMn_Ow3XCvqy-211" value="" style="edgeStyle=orthogonalEdgeStyle;rounded=0;orthogonalLoop=1;jettySize=auto;html=1;startArrow=none;startFill=0;endArrow=classic;endFill=1;" edge="1" parent="WIyWlLk6GJQsqaUBKTNV-1" source="5_xVZ5PCrMn_Ow3XCvqy-196" target="5_xVZ5PCrMn_Ow3XCvqy-209">
          <mxGeometry relative="1" as="geometry" />
        </mxCell>
        <mxCell id="5_xVZ5PCrMn_Ow3XCvqy-196" value="DELETE CARD" style="rounded=1;whiteSpace=wrap;html=1;fontSize=12;glass=0;strokeWidth=1;shadow=0;" vertex="1" parent="WIyWlLk6GJQsqaUBKTNV-1">
          <mxGeometry x="455" y="570" width="120" height="40" as="geometry" />
        </mxCell>
        <mxCell id="5_xVZ5PCrMn_Ow3XCvqy-201" value="CREATE SET" style="rounded=1;whiteSpace=wrap;html=1;fontSize=12;glass=0;strokeWidth=1;shadow=0;" vertex="1" parent="WIyWlLk6GJQsqaUBKTNV-1">
          <mxGeometry x="30" y="230" width="120" height="40" as="geometry" />
        </mxCell>
        <mxCell id="5_xVZ5PCrMn_Ow3XCvqy-210" value="" style="edgeStyle=orthogonalEdgeStyle;rounded=0;orthogonalLoop=1;jettySize=auto;html=1;startArrow=none;startFill=0;endArrow=classic;endFill=1;" edge="1" parent="WIyWlLk6GJQsqaUBKTNV-1" source="5_xVZ5PCrMn_Ow3XCvqy-209" target="l96hs2-_nlqCzScLkACY-65">
          <mxGeometry relative="1" as="geometry" />
        </mxCell>
        <mxCell id="5_xVZ5PCrMn_Ow3XCvqy-209" value="CONFIRM" style="rounded=1;whiteSpace=wrap;html=1;fontSize=12;glass=0;strokeWidth=1;shadow=0;arcSize=50;" vertex="1" parent="WIyWlLk6GJQsqaUBKTNV-1">
          <mxGeometry x="455" y="450" width="120" height="40" as="geometry" />
        </mxCell>
      </root>
    </mxGraphModel>
  </diagram>
</mxfile>
